<?xml version="1.0"?>
<!-- Generated by SVGo -->
<svg width="500" height="500"
     xmlns="http://www.w3.org/2000/svg"
     xmlns:xlink="http://www.w3.org/1999/xlink">
<title>Android</title>
<rect x="0" y="0" width="500" height="500" style="fill:rgb(255,255,255)" />
<g style="fill:rgb(164,198,57);opacity:1.00">
<path d="M130,170 A35,35 0 0 1 230,170" />
<line x1="160" y1="125" x2="150" y2="110" stroke="rgb(164,198,57)" stroke-linecap="round" stroke-width="5" />
<line x1="200" y1="125" x2="210" y2="110" stroke="rgb(164,198,57)" stroke-linecap="round" stroke-width="5" />
<circle cx="160" cy="145" r="5" style="fill:white" />
<circle cx="200" cy="145" r="5" fill="white" />
<rect x="130" y="175" width="100" height="90" rx="10" ry="10" />
<rect x="130" y="175" width="100" height="80" />
<rect x="105" y="180" width="20" height="70" rx="10" ry="10" />
<rect x="235" y="180" width="20" height="70" rx="10" ry="10" />
<rect x="150" y="250" width="20" height="50" rx="10" ry="10" />
<rect x="190" y="250" width="20" height="50" rx="10" ry="10" />
</g>
<g transform="scale(3)">
<g style="fill:gray;opacity:0.50">
<path d="M80,120 A35,35 0 0 1 180,120" />
<line x1="110" y1="75" x2="100" y2="60" stroke="gray" stroke-linecap="round" stroke-width="5" />
<line x1="150" y1="75" x2="160" y2="60" stroke="gray" stroke-linecap="round" stroke-width="5" />
<circle cx="110" cy="95" r="5" style="fill:white" />
<circle cx="150" cy="95" r="5" fill="white" />
<rect x="80" y="125" width="100" height="90" rx="10" ry="10" />
<rect x="80" y="125" width="100" height="80" />
<rect x="55" y="130" width="20" height="70" rx="10" ry="10" />
<rect x="185" y="130" width="20" height="70" rx="10" ry="10" />
<rect x="100" y="200" width="20" height="50" rx="10" ry="10" />
<rect x="140" y="200" width="20" height="50" rx="10" ry="10" />
</g>
</g>
<g transform="scale(0.5)">
<g style="fill:red;opacity:1.00">
<path d="M130,170 A35,35 0 0 1 230,170" />
<line x1="160" y1="125" x2="150" y2="110" stroke="red" stroke-linecap="round" stroke-width="5" />
<line x1="200" y1="125" x2="210" y2="110" stroke="red" stroke-linecap="round" stroke-width="5" />
<circle cx="160" cy="145" r="5" style="fill:white" />
<circle cx="200" cy="145" r="5" fill="white" />
<rect x="130" y="175" width="100" height="90" rx="10" ry="10" />
<rect x="130" y="175" width="100" height="80" />
<rect x="105" y="180" width="20" height="70" rx="10" ry="10" />
<rect x="235" y="180" width="20" height="70" rx="10" ry="10" />
<rect x="150" y="250" width="20" height="50" rx="10" ry="10" />
<rect x="190" y="250" width="20" height="50" rx="10" ry="10" />
</g>
</g>
</svg>
