<?xml version="1.0"?>
<!-- Generated by SVGo -->
<svg width="1200" height="600"
     xmlns="http://www.w3.org/2000/svg"
     xmlns:xlink="http://www.w3.org/1999/xlink">
<title>Bubble Trail</title>
<rect x="0" y="0" width="1200" height="600" style="fill:rgb(200,200,200)" />
<g style="fill-opacity:0.50;stroke:none">
<circle cx="152" cy="238" r="40" style="fill:rgb(0,0,0)" />
<circle cx="347" cy="305" r="40" style="fill:rgb(127,127,127)" />
<circle cx="419" cy="280" r="40" style="fill:rgb(255,255,255)" />
<circle cx="350" cy="255" r="40" style="fill:rgb(0,0,0)" />
<circle cx="39" cy="211" r="40" style="fill:rgb(127,0,0)" />
<circle cx="993" cy="270" r="40" style="fill:rgb(0,0,0)" />
<circle cx="932" cy="229" r="40" style="fill:rgb(127,127,127)" />
<circle cx="17" cy="362" r="40" style="fill:rgb(0,0,0)" />
<circle cx="211" cy="275" r="40" style="fill:rgb(127,127,127)" />
<circle cx="795" cy="396" r="40" style="fill:rgb(0,0,0)" />
<circle cx="469" cy="223" r="40" style="fill:rgb(255,255,255)" />
<circle cx="127" cy="354" r="40" style="fill:rgb(255,255,255)" />
<circle cx="239" cy="290" r="40" style="fill:rgb(255,255,255)" />
<circle cx="231" cy="383" r="40" style="fill:rgb(127,127,127)" />
<circle cx="946" cy="253" r="40" style="fill:rgb(0,0,0)" />
<circle cx="800" cy="370" r="40" style="fill:rgb(127,0,0)" />
<circle cx="613" cy="383" r="40" style="fill:rgb(255,255,255)" />
<circle cx="359" cy="240" r="40" style="fill:rgb(255,255,255)" />
<circle cx="721" cy="244" r="40" style="fill:rgb(255,255,255)" />
<circle cx="535" cy="276" r="40" style="fill:rgb(0,0,0)" />
<circle cx="882" cy="300" r="40" style="fill:rgb(0,0,0)" />
<circle cx="192" cy="391" r="40" style="fill:rgb(127,0,0)" />
<circle cx="44" cy="348" r="40" style="fill:rgb(0,0,0)" />
<circle cx="1024" cy="223" r="40" style="fill:rgb(0,0,0)" />
<circle cx="576" cy="326" r="40" style="fill:rgb(127,0,0)" />
<circle cx="1125" cy="326" r="40" style="fill:rgb(0,0,0)" />
<circle cx="891" cy="221" r="40" style="fill:rgb(127,127,127)" />
<circle cx="302" cy="368" r="40" style="fill:rgb(127,0,0)" />
<circle cx="546" cy="382" r="40" style="fill:rgb(127,0,0)" />
<circle cx="614" cy="222" r="40" style="fill:rgb(127,127,127)" />
<circle cx="1101" cy="333" r="40" style="fill:rgb(255,255,255)" />
<circle cx="1029" cy="267" r="40" style="fill:rgb(0,0,0)" />
<circle cx="1057" cy="270" r="40" style="fill:rgb(0,0,0)" />
<circle cx="763" cy="268" r="40" style="fill:rgb(127,0,0)" />
<circle cx="56" cy="203" r="40" style="fill:rgb(127,0,0)" />
<circle cx="457" cy="272" r="40" style="fill:rgb(127,0,0)" />
<circle cx="1125" cy="285" r="40" style="fill:rgb(255,255,255)" />
<circle cx="334" cy="283" r="40" style="fill:rgb(127,127,127)" />
<circle cx="322" cy="313" r="40" style="fill:rgb(127,127,127)" />
<circle cx="172" cy="292" r="40" style="fill:rgb(127,0,0)" />
<circle cx="162" cy="277" r="40" style="fill:rgb(127,127,127)" />
<circle cx="424" cy="257" r="40" style="fill:rgb(127,127,127)" />
<circle cx="930" cy="226" r="40" style="fill:rgb(0,0,0)" />
<circle cx="484" cy="350" r="40" style="fill:rgb(127,127,127)" />
<circle cx="547" cy="356" r="40" style="fill:rgb(127,0,0)" />
<circle cx="1123" cy="205" r="40" style="fill:rgb(127,0,0)" />
<circle cx="267" cy="249" r="40" style="fill:rgb(127,127,127)" />
<circle cx="448" cy="378" r="40" style="fill:rgb(0,0,0)" />
<circle cx="911" cy="332" r="40" style="fill:rgb(127,127,127)" />
<circle cx="390" cy="263" r="40" style="fill:rgb(255,255,255)" />
<circle cx="648" cy="281" r="40" style="fill:rgb(0,0,0)" />
<circle cx="133" cy="305" r="40" style="fill:rgb(255,255,255)" />
<circle cx="310" cy="302" r="40" style="fill:rgb(127,127,127)" />
<circle cx="886" cy="337" r="40" style="fill:rgb(127,127,127)" />
<circle cx="966" cy="238" r="40" style="fill:rgb(255,255,255)" />
<circle cx="124" cy="256" r="40" style="fill:rgb(255,255,255)" />
<circle cx="626" cy="288" r="40" style="fill:rgb(0,0,0)" />
<circle cx="451" cy="243" r="40" style="fill:rgb(127,127,127)" />
<circle cx="92" cy="322" r="40" style="fill:rgb(127,0,0)" />
<circle cx="179" cy="260" r="40" style="fill:rgb(255,255,255)" />
<circle cx="538" cy="359" r="40" style="fill:rgb(255,255,255)" />
<circle cx="638" cy="394" r="40" style="fill:rgb(127,127,127)" />
<circle cx="689" cy="224" r="40" style="fill:rgb(255,255,255)" />
<circle cx="655" cy="227" r="40" style="fill:rgb(127,0,0)" />
<circle cx="706" cy="392" r="40" style="fill:rgb(127,0,0)" />
<circle cx="1123" cy="331" r="40" style="fill:rgb(127,127,127)" />
<circle cx="275" cy="254" r="40" style="fill:rgb(0,0,0)" />
<circle cx="162" cy="274" r="40" style="fill:rgb(255,255,255)" />
<circle cx="981" cy="374" r="40" style="fill:rgb(255,255,255)" />
<circle cx="231" cy="312" r="40" style="fill:rgb(127,0,0)" />
<circle cx="109" cy="257" r="40" style="fill:rgb(127,127,127)" />
<circle cx="1140" cy="297" r="40" style="fill:rgb(0,0,0)" />
<circle cx="565" cy="249" r="40" style="fill:rgb(127,127,127)" />
<circle cx="194" cy="342" r="40" style="fill:rgb(255,255,255)" />
<circle cx="928" cy="207" r="40" style="fill:rgb(0,0,0)" />
<circle cx="1021" cy="374" r="40" style="fill:rgb(127,127,127)" />
<circle cx="1173" cy="257" r="40" style="fill:rgb(127,127,127)" />
<circle cx="691" cy="233" r="40" style="fill:rgb(255,255,255)" />
<circle cx="168" cy="301" r="40" style="fill:rgb(127,0,0)" />
<circle cx="914" cy="275" r="40" style="fill:rgb(127,127,127)" />
<circle cx="1058" cy="329" r="40" style="fill:rgb(255,255,255)" />
<circle cx="932" cy="312" r="40" style="fill:rgb(0,0,0)" />
<circle cx="1084" cy="384" r="40" style="fill:rgb(255,255,255)" />
<circle cx="985" cy="389" r="40" style="fill:rgb(127,0,0)" />
<circle cx="477" cy="348" r="40" style="fill:rgb(127,127,127)" />
<circle cx="975" cy="357" r="40" style="fill:rgb(127,127,127)" />
<circle cx="276" cy="394" r="40" style="fill:rgb(127,0,0)" />
<circle cx="575" cy="339" r="40" style="fill:rgb(127,0,0)" />
<circle cx="189" cy="396" r="40" style="fill:rgb(127,127,127)" />
<circle cx="776" cy="288" r="40" style="fill:rgb(0,0,0)" />
<circle cx="1178" cy="262" r="40" style="fill:rgb(127,0,0)" />
<circle cx="689" cy="376" r="40" style="fill:rgb(0,0,0)" />
<circle cx="1192" cy="329" r="40" style="fill:rgb(127,0,0)" />
<circle cx="688" cy="365" r="40" style="fill:rgb(127,0,0)" />
<circle cx="961" cy="317" r="40" style="fill:rgb(255,255,255)" />
<circle cx="1037" cy="220" r="40" style="fill:rgb(255,255,255)" />
<circle cx="320" cy="251" r="40" style="fill:rgb(255,255,255)" />
<circle cx="571" cy="289" r="40" style="fill:rgb(255,255,255)" />
<circle cx="1172" cy="201" r="40" style="fill:rgb(255,255,255)" />
<circle cx="688" cy="267" r="40" style="fill:rgb(127,127,127)" />
<circle cx="1103" cy="348" r="40" style="fill:rgb(127,127,127)" />
<circle cx="677" cy="223" r="40" style="fill:rgb(0,0,0)" />
<circle cx="48" cy="210" r="40" style="fill:rgb(127,127,127)" />
<circle cx="701" cy="324" r="40" style="fill:rgb(127,127,127)" />
<circle cx="33" cy="324" r="40" style="fill:rgb(255,255,255)" />
<circle cx="811" cy="317" r="40" style="fill:rgb(127,127,127)" />
<circle cx="574" cy="378" r="40" style="fill:rgb(255,255,255)" />
<circle cx="717" cy="226" r="40" style="fill:rgb(127,0,0)" />
<circle cx="246" cy="212" r="40" style="fill:rgb(0,0,0)" />
<circle cx="663" cy="306" r="40" style="fill:rgb(0,0,0)" />
<circle cx="801" cy="262" r="40" style="fill:rgb(127,0,0)" />
<circle cx="963" cy="355" r="40" style="fill:rgb(127,127,127)" />
<circle cx="330" cy="303" r="40" style="fill:rgb(127,127,127)" />
<circle cx="941" cy="372" r="40" style="fill:rgb(255,255,255)" />
<circle cx="1182" cy="200" r="40" style="fill:rgb(127,127,127)" />
<circle cx="952" cy="283" r="40" style="fill:rgb(127,0,0)" />
<circle cx="659" cy="321" r="40" style="fill:rgb(127,127,127)" />
<circle cx="580" cy="315" r="40" style="fill:rgb(255,255,255)" />
<circle cx="75" cy="242" r="40" style="fill:rgb(0,0,0)" />
<circle cx="556" cy="347" r="40" style="fill:rgb(0,0,0)" />
<circle cx="59" cy="218" r="40" style="fill:rgb(127,127,127)" />
<circle cx="446" cy="337" r="40" style="fill:rgb(0,0,0)" />
<circle cx="876" cy="385" r="40" style="fill:rgb(255,255,255)" />
<circle cx="966" cy="207" r="40" style="fill:rgb(255,255,255)" />
<circle cx="389" cy="266" r="40" style="fill:rgb(0,0,0)" />
<circle cx="291" cy="228" r="40" style="fill:rgb(127,0,0)" />
<circle cx="199" cy="371" r="40" style="fill:rgb(127,127,127)" />
<circle cx="911" cy="392" r="40" style="fill:rgb(255,255,255)" />
<circle cx="1036" cy="387" r="40" style="fill:rgb(255,255,255)" />
<circle cx="1081" cy="269" r="40" style="fill:rgb(127,0,0)" />
<circle cx="101" cy="391" r="40" style="fill:rgb(127,0,0)" />
<circle cx="224" cy="321" r="40" style="fill:rgb(255,255,255)" />
<circle cx="863" cy="272" r="40" style="fill:rgb(0,0,0)" />
<circle cx="352" cy="370" r="40" style="fill:rgb(255,255,255)" />
<circle cx="7" cy="304" r="40" style="fill:rgb(255,255,255)" />
<circle cx="800" cy="352" r="40" style="fill:rgb(255,255,255)" />
<circle cx="278" cy="232" r="40" style="fill:rgb(0,0,0)" />
<circle cx="222" cy="394" r="40" style="fill:rgb(255,255,255)" />
<circle cx="330" cy="225" r="40" style="fill:rgb(127,0,0)" />
<circle cx="192" cy="350" r="40" style="fill:rgb(127,127,127)" />
<circle cx="1189" cy="386" r="40" style="fill:rgb(0,0,0)" />
<circle cx="1167" cy="229" r="40" style="fill:rgb(127,127,127)" />
<circle cx="329" cy="286" r="40" style="fill:rgb(0,0,0)" />
<circle cx="1191" cy="258" r="40" style="fill:rgb(127,0,0)" />
<circle cx="113" cy="228" r="40" style="fill:rgb(127,127,127)" />
<circle cx="253" cy="313" r="40" style="fill:rgb(127,127,127)" />
<circle cx="699" cy="233" r="40" style="fill:rgb(255,255,255)" />
<circle cx="452" cy="207" r="40" style="fill:rgb(127,127,127)" />
<circle cx="374" cy="209" r="40" style="fill:rgb(127,0,0)" />
<circle cx="237" cy="281" r="40" style="fill:rgb(0,0,0)" />
<circle cx="1085" cy="385" r="40" style="fill:rgb(127,127,127)" />
<circle cx="133" cy="233" r="40" style="fill:rgb(127,127,127)" />
<circle cx="540" cy="262" r="40" style="fill:rgb(127,127,127)" />
<circle cx="931" cy="265" r="40" style="fill:rgb(0,0,0)" />
<circle cx="430" cy="231" r="40" style="fill:rgb(255,255,255)" />
<circle cx="392" cy="241" r="40" style="fill:rgb(255,255,255)" />
<circle cx="803" cy="352" r="40" style="fill:rgb(255,255,255)" />
<circle cx="210" cy="277" r="40" style="fill:rgb(127,127,127)" />
<circle cx="313" cy="304" r="40" style="fill:rgb(127,0,0)" />
<circle cx="880" cy="224" r="40" style="fill:rgb(255,255,255)" />
<circle cx="1001" cy="356" r="40" style="fill:rgb(127,0,0)" />
<circle cx="226" cy="375" r="40" style="fill:rgb(255,255,255)" />
<circle cx="125" cy="392" r="40" style="fill:rgb(255,255,255)" />
<circle cx="212" cy="336" r="40" style="fill:rgb(127,127,127)" />
<circle cx="798" cy="244" r="40" style="fill:rgb(255,255,255)" />
<circle cx="150" cy="336" r="40" style="fill:rgb(127,127,127)" />
<circle cx="922" cy="236" r="40" style="fill:rgb(0,0,0)" />
<circle cx="11" cy="349" r="40" style="fill:rgb(0,0,0)" />
<circle cx="764" cy="289" r="40" style="fill:rgb(127,127,127)" />
<circle cx="719" cy="340" r="40" style="fill:rgb(0,0,0)" />
<circle cx="976" cy="248" r="40" style="fill:rgb(255,255,255)" />
<circle cx="273" cy="322" r="40" style="fill:rgb(127,0,0)" />
<circle cx="1130" cy="328" r="40" style="fill:rgb(127,0,0)" />
<circle cx="195" cy="395" r="40" style="fill:rgb(127,0,0)" />
<circle cx="328" cy="349" r="40" style="fill:rgb(0,0,0)" />
<circle cx="1003" cy="390" r="40" style="fill:rgb(255,255,255)" />
<circle cx="256" cy="342" r="40" style="fill:rgb(127,0,0)" />
<circle cx="1028" cy="302" r="40" style="fill:rgb(255,255,255)" />
<circle cx="687" cy="226" r="40" style="fill:rgb(0,0,0)" />
<circle cx="609" cy="243" r="40" style="fill:rgb(0,0,0)" />
<circle cx="188" cy="232" r="40" style="fill:rgb(255,255,255)" />
<circle cx="340" cy="360" r="40" style="fill:rgb(255,255,255)" />
<circle cx="916" cy="356" r="40" style="fill:rgb(127,127,127)" />
<circle cx="541" cy="269" r="40" style="fill:rgb(127,127,127)" />
<circle cx="812" cy="228" r="40" style="fill:rgb(255,255,255)" />
<circle cx="161" cy="211" r="40" style="fill:rgb(127,127,127)" />
<circle cx="712" cy="399" r="40" style="fill:rgb(127,127,127)" />
<circle cx="212" cy="291" r="40" style="fill:rgb(127,127,127)" />
<circle cx="1199" cy="300" r="40" style="fill:rgb(127,0,0)" />
<circle cx="744" cy="219" r="40" style="fill:rgb(255,255,255)" />
<circle cx="795" cy="375" r="40" style="fill:rgb(127,0,0)" />
<circle cx="1124" cy="371" r="40" style="fill:rgb(127,0,0)" />
<circle cx="1095" cy="273" r="40" style="fill:rgb(127,127,127)" />
<circle cx="824" cy="324" r="40" style="fill:rgb(0,0,0)" />
<circle cx="258" cy="240" r="40" style="fill:rgb(255,255,255)" />
<circle cx="918" cy="388" r="40" style="fill:rgb(0,0,0)" />
<circle cx="86" cy="221" r="40" style="fill:rgb(255,255,255)" />
<circle cx="940" cy="309" r="40" style="fill:rgb(255,255,255)" />
<circle cx="74" cy="369" r="40" style="fill:rgb(127,127,127)" />
<circle cx="1087" cy="298" r="40" style="fill:rgb(0,0,0)" />
</g>
</svg>
