<?xml version="1.0"?>
<!-- Generated by SVGo -->
<svg width="1000" height="600"
     xmlns="http://www.w3.org/2000/svg"
     xmlns:xlink="http://www.w3.org/1999/xlink">
<rect x="0" y="0" width="1000" height="600" style="fill:white" />
<text x="80" y="540" style="font-size:14pt; fill:blue; font-family:Noto-Sans" >Noto-Sans</text>
<text x="80" y="560" style="font-size:14pt; fill:red;  font-family:Calibri" >Calibri</text>
<g style="font-family:Noto-Sans;font-size:32pt;text-anchor:middle;fill:blue;fill-opacity:0.50">
<text x="100" y="100" >A</text>
<text x="164" y="100" >B</text>
<text x="228" y="100" >C</text>
<text x="292" y="100" >D</text>
<text x="356" y="100" >E</text>
<text x="420" y="100" >F</text>
<text x="484" y="100" >G</text>
<text x="548" y="100" >H</text>
<text x="612" y="100" >I</text>
<text x="676" y="100" >J</text>
<text x="740" y="100" >K</text>
<text x="804" y="100" >L</text>
<text x="868" y="100" >M</text>
<text x="100" y="164" >N</text>
<text x="164" y="164" >O</text>
<text x="228" y="164" >P</text>
<text x="292" y="164" >Q</text>
<text x="356" y="164" >R</text>
<text x="420" y="164" >S</text>
<text x="484" y="164" >T</text>
<text x="548" y="164" >U</text>
<text x="612" y="164" >V</text>
<text x="676" y="164" >W</text>
<text x="740" y="164" >X</text>
<text x="804" y="164" >Y</text>
<text x="868" y="164" >Z</text>
<text x="100" y="228" >a</text>
<text x="164" y="228" >b</text>
<text x="228" y="228" >c</text>
<text x="292" y="228" >d</text>
<text x="356" y="228" >e</text>
<text x="420" y="228" >f</text>
<text x="484" y="228" >g</text>
<text x="548" y="228" >h</text>
<text x="612" y="228" >i</text>
<text x="676" y="228" >j</text>
<text x="740" y="228" >k</text>
<text x="804" y="228" >l</text>
<text x="868" y="228" >m</text>
<text x="100" y="292" >n</text>
<text x="164" y="292" >o</text>
<text x="228" y="292" >p</text>
<text x="292" y="292" >q</text>
<text x="356" y="292" >r</text>
<text x="420" y="292" >s</text>
<text x="484" y="292" >t</text>
<text x="548" y="292" >u</text>
<text x="612" y="292" >v</text>
<text x="676" y="292" >w</text>
<text x="740" y="292" >x</text>
<text x="804" y="292" >y</text>
<text x="868" y="292" >z</text>
<text x="100" y="356" >0</text>
<text x="164" y="356" >1</text>
<text x="228" y="356" >2</text>
<text x="292" y="356" >3</text>
<text x="356" y="356" >4</text>
<text x="420" y="356" >5</text>
<text x="484" y="356" >6</text>
<text x="548" y="356" >7</text>
<text x="612" y="356" >8</text>
<text x="676" y="356" >9</text>
<text x="740" y="356" >(</text>
<text x="804" y="356" >)</text>
<text x="868" y="356" >{</text>
<text x="100" y="420" >}</text>
<text x="164" y="420" >[</text>
<text x="228" y="420" >]</text>
<text x="292" y="420" >,</text>
<text x="356" y="420" >.</text>
<text x="420" y="420" >:</text>
<text x="484" y="420" >;</text>
<text x="548" y="420" >-</text>
<text x="612" y="420" >+</text>
<text x="676" y="420" >*</text>
<text x="740" y="420" >/</text>
<text x="804" y="420" >\</text>
<text x="868" y="420" >&amp;</text>
<text x="100" y="484" >_</text>
<text x="164" y="484" >^</text>
<text x="228" y="484" >%</text>
<text x="292" y="484" >$</text>
<text x="356" y="484" >#</text>
<text x="420" y="484" >@</text>
<text x="484" y="484" >!</text>
<text x="548" y="484" >~</text>
<text x="612" y="484" >`</text>
<text x="676" y="484" >&#39;</text>
<text x="740" y="484" >&#34;</text>
<text x="804" y="484" >&lt;</text>
<text x="868" y="484" >&gt;</text>
</g>
<g style="font-family:Calibri;font-size:32pt;text-anchor:middle;fill:red;fill-opacity:0.50">
<text x="100" y="100" >A</text>
<text x="164" y="100" >B</text>
<text x="228" y="100" >C</text>
<text x="292" y="100" >D</text>
<text x="356" y="100" >E</text>
<text x="420" y="100" >F</text>
<text x="484" y="100" >G</text>
<text x="548" y="100" >H</text>
<text x="612" y="100" >I</text>
<text x="676" y="100" >J</text>
<text x="740" y="100" >K</text>
<text x="804" y="100" >L</text>
<text x="868" y="100" >M</text>
<text x="100" y="164" >N</text>
<text x="164" y="164" >O</text>
<text x="228" y="164" >P</text>
<text x="292" y="164" >Q</text>
<text x="356" y="164" >R</text>
<text x="420" y="164" >S</text>
<text x="484" y="164" >T</text>
<text x="548" y="164" >U</text>
<text x="612" y="164" >V</text>
<text x="676" y="164" >W</text>
<text x="740" y="164" >X</text>
<text x="804" y="164" >Y</text>
<text x="868" y="164" >Z</text>
<text x="100" y="228" >a</text>
<text x="164" y="228" >b</text>
<text x="228" y="228" >c</text>
<text x="292" y="228" >d</text>
<text x="356" y="228" >e</text>
<text x="420" y="228" >f</text>
<text x="484" y="228" >g</text>
<text x="548" y="228" >h</text>
<text x="612" y="228" >i</text>
<text x="676" y="228" >j</text>
<text x="740" y="228" >k</text>
<text x="804" y="228" >l</text>
<text x="868" y="228" >m</text>
<text x="100" y="292" >n</text>
<text x="164" y="292" >o</text>
<text x="228" y="292" >p</text>
<text x="292" y="292" >q</text>
<text x="356" y="292" >r</text>
<text x="420" y="292" >s</text>
<text x="484" y="292" >t</text>
<text x="548" y="292" >u</text>
<text x="612" y="292" >v</text>
<text x="676" y="292" >w</text>
<text x="740" y="292" >x</text>
<text x="804" y="292" >y</text>
<text x="868" y="292" >z</text>
<text x="100" y="356" >0</text>
<text x="164" y="356" >1</text>
<text x="228" y="356" >2</text>
<text x="292" y="356" >3</text>
<text x="356" y="356" >4</text>
<text x="420" y="356" >5</text>
<text x="484" y="356" >6</text>
<text x="548" y="356" >7</text>
<text x="612" y="356" >8</text>
<text x="676" y="356" >9</text>
<text x="740" y="356" >(</text>
<text x="804" y="356" >)</text>
<text x="868" y="356" >{</text>
<text x="100" y="420" >}</text>
<text x="164" y="420" >[</text>
<text x="228" y="420" >]</text>
<text x="292" y="420" >,</text>
<text x="356" y="420" >.</text>
<text x="420" y="420" >:</text>
<text x="484" y="420" >;</text>
<text x="548" y="420" >-</text>
<text x="612" y="420" >+</text>
<text x="676" y="420" >*</text>
<text x="740" y="420" >/</text>
<text x="804" y="420" >\</text>
<text x="868" y="420" >&amp;</text>
<text x="100" y="484" >_</text>
<text x="164" y="484" >^</text>
<text x="228" y="484" >%</text>
<text x="292" y="484" >$</text>
<text x="356" y="484" >#</text>
<text x="420" y="484" >@</text>
<text x="484" y="484" >!</text>
<text x="548" y="484" >~</text>
<text x="612" y="484" >`</text>
<text x="676" y="484" >&#39;</text>
<text x="740" y="484" >&#34;</text>
<text x="804" y="484" >&lt;</text>
<text x="868" y="484" >&gt;</text>
</g>
</svg>
