<?xml version="1.0"?>
<!-- Generated by SVGo -->
<svg width="512" height="512"
     onload="initializeDraggableElements();"
     xmlns:drag="http://www.codedread.com/dragsvg"
     xmlns="http://www.w3.org/2000/svg"
     xmlns:xlink="http://www.w3.org/1999/xlink">
<title>HTML5 Logo</title>
<rect x="0" y="0" width="512" height="512" />
<script type="application/javascript" xlink:href="http://www.codedread.com/dragsvg.js"/>
<polygon points="71,460 30,0 481,0 440,460 255,512" drag:enable="true" style="fill:rgb(227,79,38)" />
<polygon points="256,472 405,431 440,37 256,37" drag:enable="true" style="fill-opacity:0.30; fill:rgb(255,255,255)" />
<polygon points="181,208 176,150 392,150 393,138 396,109 397,94 114,94 115,109 129,265 325,265 318,338 256,355 192,338 188,293 132,293 139,382 256,414 371,382 372,372 385,223 387,208 371,208" drag:enable="true" style="fill:rgb(219,219,219)" />
</svg>
