<?xml version="1.0"?>
<!-- Generated by SVGo -->
<svg width="600" height="400"
     xmlns="http://www.w3.org/2000/svg"
     xmlns:xlink="http://www.w3.org/1999/xlink">
<title>Random Integer Comparison</title>
<desc>Comparison of Random integers: the random device &amp; the Go rand package</desc>
<rect x="0" y="0" width="256" height="256" style="fill:white; stroke:gray" />
<rect x="256" y="0" width="256" height="256" style="fill:white; stroke:gray" />
<desc>Left: Go rand package (red), Right: /dev/urandom</desc>
<g style="stroke:none; fill-opacity:0.5">
<circle cx="169" cy="50" r="5" style="fill:rgb(127,0,0)" />
<circle cx="257" cy="36" r="5" style="fill:black" />
<circle cx="89" cy="82" r="5" style="fill:rgb(127,0,0)" />
<circle cx="471" cy="20" r="5" style="fill:black" />
<circle cx="231" cy="211" r="5" style="fill:rgb(127,0,0)" />
<circle cx="504" cy="248" r="5" style="fill:black" />
<circle cx="61" cy="38" r="5" style="fill:rgb(127,0,0)" />
<circle cx="462" cy="134" r="5" style="fill:black" />
<circle cx="13" cy="149" r="5" style="fill:rgb(127,0,0)" />
<circle cx="403" cy="247" r="5" style="fill:black" />
<circle cx="153" cy="168" r="5" style="fill:rgb(127,0,0)" />
<circle cx="406" cy="79" r="5" style="fill:black" />
<circle cx="138" cy="71" r="5" style="fill:rgb(127,0,0)" />
<circle cx="393" cy="183" r="5" style="fill:black" />
<circle cx="71" cy="15" r="5" style="fill:rgb(127,0,0)" />
<circle cx="499" cy="132" r="5" style="fill:black" />
<circle cx="240" cy="33" r="5" style="fill:rgb(127,0,0)" />
<circle cx="272" cy="82" r="5" style="fill:black" />
<circle cx="125" cy="158" r="5" style="fill:rgb(127,0,0)" />
<circle cx="489" cy="203" r="5" style="fill:black" />
<circle cx="169" cy="71" r="5" style="fill:rgb(127,0,0)" />
<circle cx="392" cy="75" r="5" style="fill:black" />
<circle cx="229" cy="211" r="5" style="fill:rgb(127,0,0)" />
<circle cx="322" cy="50" r="5" style="fill:black" />
<circle cx="158" cy="3" r="5" style="fill:rgb(127,0,0)" />
<circle cx="267" cy="8" r="5" style="fill:black" />
<circle cx="203" cy="217" r="5" style="fill:rgb(127,0,0)" />
<circle cx="406" cy="186" r="5" style="fill:black" />
<circle cx="105" cy="115" r="5" style="fill:rgb(127,0,0)" />
<circle cx="256" cy="76" r="5" style="fill:black" />
<circle cx="212" cy="103" r="5" style="fill:rgb(127,0,0)" />
<circle cx="452" cy="241" r="5" style="fill:black" />
<circle cx="201" cy="119" r="5" style="fill:rgb(127,0,0)" />
<circle cx="381" cy="77" r="5" style="fill:black" />
<circle cx="168" cy="15" r="5" style="fill:rgb(127,0,0)" />
<circle cx="459" cy="145" r="5" style="fill:black" />
<circle cx="215" cy="171" r="5" style="fill:rgb(127,0,0)" />
<circle cx="477" cy="51" r="5" style="fill:black" />
<circle cx="252" cy="83" r="5" style="fill:rgb(127,0,0)" />
<circle cx="281" cy="190" r="5" style="fill:black" />
<circle cx="185" cy="213" r="5" style="fill:rgb(127,0,0)" />
<circle cx="293" cy="27" r="5" style="fill:black" />
<circle cx="18" cy="106" r="5" style="fill:rgb(127,0,0)" />
<circle cx="482" cy="194" r="5" style="fill:black" />
<circle cx="34" cy="191" r="5" style="fill:rgb(127,0,0)" />
<circle cx="490" cy="47" r="5" style="fill:black" />
<circle cx="13" cy="225" r="5" style="fill:rgb(127,0,0)" />
<circle cx="431" cy="215" r="5" style="fill:black" />
<circle cx="167" cy="173" r="5" style="fill:rgb(127,0,0)" />
<circle cx="425" cy="239" r="5" style="fill:black" />
<circle cx="5" cy="45" r="5" style="fill:rgb(127,0,0)" />
<circle cx="379" cy="211" r="5" style="fill:black" />
<circle cx="155" cy="200" r="5" style="fill:rgb(127,0,0)" />
<circle cx="373" cy="102" r="5" style="fill:black" />
<circle cx="153" cy="207" r="5" style="fill:rgb(127,0,0)" />
<circle cx="468" cy="154" r="5" style="fill:black" />
<circle cx="170" cy="60" r="5" style="fill:rgb(127,0,0)" />
<circle cx="392" cy="237" r="5" style="fill:black" />
<circle cx="42" cy="139" r="5" style="fill:rgb(127,0,0)" />
<circle cx="438" cy="161" r="5" style="fill:black" />
<circle cx="121" cy="250" r="5" style="fill:rgb(127,0,0)" />
<circle cx="366" cy="247" r="5" style="fill:black" />
<circle cx="249" cy="7" r="5" style="fill:rgb(127,0,0)" />
<circle cx="434" cy="112" r="5" style="fill:black" />
<circle cx="28" cy="95" r="5" style="fill:rgb(127,0,0)" />
<circle cx="267" cy="248" r="5" style="fill:black" />
<circle cx="184" cy="104" r="5" style="fill:rgb(127,0,0)" />
<circle cx="496" cy="4" r="5" style="fill:black" />
<circle cx="226" cy="10" r="5" style="fill:rgb(127,0,0)" />
<circle cx="330" cy="185" r="5" style="fill:black" />
<circle cx="186" cy="58" r="5" style="fill:rgb(127,0,0)" />
<circle cx="348" cy="12" r="5" style="fill:black" />
<circle cx="79" cy="45" r="5" style="fill:rgb(127,0,0)" />
<circle cx="257" cy="115" r="5" style="fill:black" />
<circle cx="92" cy="131" r="5" style="fill:rgb(127,0,0)" />
<circle cx="268" cy="63" r="5" style="fill:black" />
<circle cx="208" cy="240" r="5" style="fill:rgb(127,0,0)" />
<circle cx="391" cy="8" r="5" style="fill:black" />
<circle cx="232" cy="106" r="5" style="fill:rgb(127,0,0)" />
<circle cx="420" cy="147" r="5" style="fill:black" />
<circle cx="236" cy="202" r="5" style="fill:rgb(127,0,0)" />
<circle cx="387" cy="140" r="5" style="fill:black" />
<circle cx="238" cy="157" r="5" style="fill:rgb(127,0,0)" />
<circle cx="428" cy="137" r="5" style="fill:black" />
<circle cx="158" cy="169" r="5" style="fill:rgb(127,0,0)" />
<circle cx="477" cy="161" r="5" style="fill:black" />
<circle cx="212" cy="212" r="5" style="fill:rgb(127,0,0)" />
<circle cx="409" cy="2" r="5" style="fill:black" />
<circle cx="220" cy="229" r="5" style="fill:rgb(127,0,0)" />
<circle cx="405" cy="174" r="5" style="fill:black" />
<circle cx="9" cy="218" r="5" style="fill:rgb(127,0,0)" />
<circle cx="294" cy="202" r="5" style="fill:black" />
<circle cx="35" cy="123" r="5" style="fill:rgb(127,0,0)" />
<circle cx="482" cy="6" r="5" style="fill:black" />
<circle cx="169" cy="235" r="5" style="fill:rgb(127,0,0)" />
<circle cx="346" cy="99" r="5" style="fill:black" />
<circle cx="74" cy="167" r="5" style="fill:rgb(127,0,0)" />
<circle cx="409" cy="44" r="5" style="fill:black" />
<circle cx="11" cy="102" r="5" style="fill:rgb(127,0,0)" />
<circle cx="335" cy="112" r="5" style="fill:black" />
<circle cx="84" cy="209" r="5" style="fill:rgb(127,0,0)" />
<circle cx="478" cy="136" r="5" style="fill:black" />
<circle cx="36" cy="93" r="5" style="fill:rgb(127,0,0)" />
<circle cx="263" cy="222" r="5" style="fill:black" />
<circle cx="222" cy="222" r="5" style="fill:rgb(127,0,0)" />
<circle cx="445" cy="63" r="5" style="fill:black" />
<circle cx="239" cy="251" r="5" style="fill:rgb(127,0,0)" />
<circle cx="473" cy="88" r="5" style="fill:black" />
<circle cx="119" cy="194" r="5" style="fill:rgb(127,0,0)" />
<circle cx="320" cy="6" r="5" style="fill:black" />
<circle cx="225" cy="45" r="5" style="fill:rgb(127,0,0)" />
<circle cx="282" cy="144" r="5" style="fill:black" />
<circle cx="43" cy="25" r="5" style="fill:rgb(127,0,0)" />
<circle cx="360" cy="131" r="5" style="fill:black" />
<circle cx="244" cy="35" r="5" style="fill:rgb(127,0,0)" />
<circle cx="471" cy="135" r="5" style="fill:black" />
<circle cx="128" cy="74" r="5" style="fill:rgb(127,0,0)" />
<circle cx="424" cy="20" r="5" style="fill:black" />
<circle cx="133" cy="137" r="5" style="fill:rgb(127,0,0)" />
<circle cx="357" cy="106" r="5" style="fill:black" />
<circle cx="250" cy="228" r="5" style="fill:rgb(127,0,0)" />
<circle cx="304" cy="154" r="5" style="fill:black" />
<circle cx="156" cy="55" r="5" style="fill:rgb(127,0,0)" />
<circle cx="333" cy="228" r="5" style="fill:black" />
<circle cx="217" cy="194" r="5" style="fill:rgb(127,0,0)" />
<circle cx="343" cy="165" r="5" style="fill:black" />
<circle cx="1" cy="108" r="5" style="fill:rgb(127,0,0)" />
<circle cx="455" cy="237" r="5" style="fill:black" />
<circle cx="240" cy="230" r="5" style="fill:rgb(127,0,0)" />
<circle cx="364" cy="174" r="5" style="fill:black" />
<circle cx="237" cy="80" r="5" style="fill:rgb(127,0,0)" />
<circle cx="469" cy="95" r="5" style="fill:black" />
<circle cx="158" cy="155" r="5" style="fill:rgb(127,0,0)" />
<circle cx="423" cy="26" r="5" style="fill:black" />
<circle cx="129" cy="47" r="5" style="fill:rgb(127,0,0)" />
<circle cx="499" cy="47" r="5" style="fill:black" />
<circle cx="41" cy="76" r="5" style="fill:rgb(127,0,0)" />
<circle cx="379" cy="230" r="5" style="fill:black" />
<circle cx="171" cy="102" r="5" style="fill:rgb(127,0,0)" />
<circle cx="328" cy="185" r="5" style="fill:black" />
<circle cx="164" cy="42" r="5" style="fill:rgb(127,0,0)" />
<circle cx="470" cy="118" r="5" style="fill:black" />
<circle cx="110" cy="124" r="5" style="fill:rgb(127,0,0)" />
<circle cx="281" cy="193" r="5" style="fill:black" />
<circle cx="40" cy="134" r="5" style="fill:rgb(127,0,0)" />
<circle cx="416" cy="56" r="5" style="fill:black" />
<circle cx="126" cy="27" r="5" style="fill:rgb(127,0,0)" />
<circle cx="343" cy="112" r="5" style="fill:black" />
<circle cx="221" cy="85" r="5" style="fill:rgb(127,0,0)" />
<circle cx="263" cy="61" r="5" style="fill:black" />
<circle cx="83" cy="92" r="5" style="fill:rgb(127,0,0)" />
<circle cx="403" cy="227" r="5" style="fill:black" />
<circle cx="27" cy="237" r="5" style="fill:rgb(127,0,0)" />
<circle cx="271" cy="53" r="5" style="fill:black" />
<circle cx="175" cy="26" r="5" style="fill:rgb(127,0,0)" />
<circle cx="390" cy="60" r="5" style="fill:black" />
<circle cx="222" cy="79" r="5" style="fill:rgb(127,0,0)" />
<circle cx="510" cy="49" r="5" style="fill:black" />
<circle cx="66" cy="206" r="5" style="fill:rgb(127,0,0)" />
<circle cx="283" cy="67" r="5" style="fill:black" />
<circle cx="77" cy="154" r="5" style="fill:rgb(127,0,0)" />
<circle cx="411" cy="236" r="5" style="fill:black" />
<circle cx="55" cy="197" r="5" style="fill:rgb(127,0,0)" />
<circle cx="417" cy="83" r="5" style="fill:black" />
<circle cx="222" cy="1" r="5" style="fill:rgb(127,0,0)" />
<circle cx="473" cy="83" r="5" style="fill:black" />
<circle cx="219" cy="249" r="5" style="fill:rgb(127,0,0)" />
<circle cx="342" cy="85" r="5" style="fill:black" />
<circle cx="153" cy="68" r="5" style="fill:rgb(127,0,0)" />
<circle cx="393" cy="68" r="5" style="fill:black" />
<circle cx="30" cy="95" r="5" style="fill:rgb(127,0,0)" />
<circle cx="438" cy="40" r="5" style="fill:black" />
<circle cx="225" cy="179" r="5" style="fill:rgb(127,0,0)" />
<circle cx="339" cy="26" r="5" style="fill:black" />
<circle cx="6" cy="223" r="5" style="fill:rgb(127,0,0)" />
<circle cx="292" cy="46" r="5" style="fill:black" />
<circle cx="181" cy="247" r="5" style="fill:rgb(127,0,0)" />
<circle cx="298" cy="43" r="5" style="fill:black" />
<circle cx="143" cy="19" r="5" style="fill:rgb(127,0,0)" />
<circle cx="273" cy="24" r="5" style="fill:black" />
<circle cx="219" cy="225" r="5" style="fill:rgb(127,0,0)" />
<circle cx="295" cy="199" r="5" style="fill:black" />
<circle cx="250" cy="174" r="5" style="fill:rgb(127,0,0)" />
<circle cx="403" cy="186" r="5" style="fill:black" />
<circle cx="147" cy="141" r="5" style="fill:rgb(127,0,0)" />
<circle cx="315" cy="14" r="5" style="fill:black" />
<circle cx="44" cy="157" r="5" style="fill:rgb(127,0,0)" />
<circle cx="490" cy="91" r="5" style="fill:black" />
<circle cx="64" cy="223" r="5" style="fill:rgb(127,0,0)" />
<circle cx="484" cy="187" r="5" style="fill:black" />
<circle cx="166" cy="161" r="5" style="fill:rgb(127,0,0)" />
<circle cx="413" cy="54" r="5" style="fill:black" />
<circle cx="201" cy="174" r="5" style="fill:rgb(127,0,0)" />
<circle cx="414" cy="7" r="5" style="fill:black" />
<circle cx="92" cy="230" r="5" style="fill:rgb(127,0,0)" />
<circle cx="356" cy="63" r="5" style="fill:black" />
<circle cx="166" cy="99" r="5" style="fill:rgb(127,0,0)" />
<circle cx="327" cy="121" r="5" style="fill:black" />
<circle cx="183" cy="52" r="5" style="fill:rgb(127,0,0)" />
<circle cx="303" cy="107" r="5" style="fill:black" />
<circle cx="89" cy="134" r="5" style="fill:rgb(127,0,0)" />
<circle cx="420" cy="139" r="5" style="fill:black" />
<circle cx="76" cy="32" r="5" style="fill:rgb(127,0,0)" />
<circle cx="366" cy="235" r="5" style="fill:black" />
<circle cx="163" cy="41" r="5" style="fill:rgb(127,0,0)" />
<circle cx="319" cy="120" r="5" style="fill:black" />
<circle cx="109" cy="127" r="5" style="fill:rgb(127,0,0)" />
<circle cx="354" cy="203" r="5" style="fill:black" />
<circle cx="244" cy="17" r="5" style="fill:rgb(127,0,0)" />
<circle cx="257" cy="147" r="5" style="fill:black" />
<circle cx="205" cy="133" r="5" style="fill:rgb(127,0,0)" />
<circle cx="416" cy="129" r="5" style="fill:black" />
<circle cx="42" cy="87" r="5" style="fill:rgb(127,0,0)" />
<circle cx="416" cy="104" r="5" style="fill:black" />
<circle cx="110" cy="65" r="5" style="fill:rgb(127,0,0)" />
<circle cx="395" cy="144" r="5" style="fill:black" />
<circle cx="180" cy="105" r="5" style="fill:rgb(127,0,0)" />
<circle cx="371" cy="234" r="5" style="fill:black" />
<circle cx="251" cy="109" r="5" style="fill:rgb(127,0,0)" />
<circle cx="350" cy="8" r="5" style="fill:black" />
<circle cx="98" cy="16" r="5" style="fill:rgb(127,0,0)" />
<circle cx="347" cy="196" r="5" style="fill:black" />
<circle cx="83" cy="110" r="5" style="fill:rgb(127,0,0)" />
<circle cx="429" cy="78" r="5" style="fill:black" />
<circle cx="16" cy="34" r="5" style="fill:rgb(127,0,0)" />
<circle cx="337" cy="190" r="5" style="fill:black" />
<circle cx="122" cy="129" r="5" style="fill:rgb(127,0,0)" />
<circle cx="463" cy="74" r="5" style="fill:black" />
<circle cx="161" cy="138" r="5" style="fill:rgb(127,0,0)" />
<circle cx="507" cy="216" r="5" style="fill:black" />
<circle cx="97" cy="247" r="5" style="fill:rgb(127,0,0)" />
<circle cx="324" cy="102" r="5" style="fill:black" />
<circle cx="232" cy="252" r="5" style="fill:rgb(127,0,0)" />
<circle cx="317" cy="144" r="5" style="fill:black" />
<circle cx="163" cy="221" r="5" style="fill:rgb(127,0,0)" />
<circle cx="389" cy="233" r="5" style="fill:black" />
<circle cx="81" cy="68" r="5" style="fill:rgb(127,0,0)" />
<circle cx="488" cy="75" r="5" style="fill:black" />
<circle cx="124" cy="227" r="5" style="fill:rgb(127,0,0)" />
<circle cx="305" cy="32" r="5" style="fill:black" />
<circle cx="57" cy="26" r="5" style="fill:rgb(127,0,0)" />
<circle cx="502" cy="226" r="5" style="fill:black" />
<circle cx="184" cy="243" r="5" style="fill:rgb(127,0,0)" />
<circle cx="290" cy="64" r="5" style="fill:black" />
<circle cx="119" cy="72" r="5" style="fill:rgb(127,0,0)" />
<circle cx="308" cy="29" r="5" style="fill:black" />
<circle cx="107" cy="32" r="5" style="fill:rgb(127,0,0)" />
<circle cx="297" cy="232" r="5" style="fill:black" />
<circle cx="50" cy="12" r="5" style="fill:rgb(127,0,0)" />
<circle cx="432" cy="206" r="5" style="fill:black" />
<circle cx="130" cy="120" r="5" style="fill:rgb(127,0,0)" />
<circle cx="304" cy="252" r="5" style="fill:black" />
<circle cx="84" cy="35" r="5" style="fill:rgb(127,0,0)" />
<circle cx="375" cy="151" r="5" style="fill:black" />
<circle cx="55" cy="128" r="5" style="fill:rgb(127,0,0)" />
<circle cx="442" cy="19" r="5" style="fill:black" />
<circle cx="237" cy="213" r="5" style="fill:rgb(127,0,0)" />
<circle cx="311" cy="26" r="5" style="fill:black" />
<circle cx="61" cy="166" r="5" style="fill:rgb(127,0,0)" />
<circle cx="305" cy="11" r="5" style="fill:black" />
<circle cx="26" cy="50" r="5" style="fill:rgb(127,0,0)" />
<circle cx="466" cy="0" r="5" style="fill:black" />
<circle cx="22" cy="37" r="5" style="fill:rgb(127,0,0)" />
<circle cx="409" cy="196" r="5" style="fill:black" />
<circle cx="203" cy="193" r="5" style="fill:rgb(127,0,0)" />
<circle cx="466" cy="175" r="5" style="fill:black" />
<circle cx="196" cy="12" r="5" style="fill:rgb(127,0,0)" />
<circle cx="310" cy="181" r="5" style="fill:black" />
<circle cx="193" cy="254" r="5" style="fill:rgb(127,0,0)" />
<circle cx="323" cy="217" r="5" style="fill:black" />
<circle cx="197" cy="225" r="5" style="fill:rgb(127,0,0)" />
<circle cx="261" cy="75" r="5" style="fill:black" />
<circle cx="107" cy="144" r="5" style="fill:rgb(127,0,0)" />
<circle cx="405" cy="127" r="5" style="fill:black" />
<circle cx="85" cy="42" r="5" style="fill:rgb(127,0,0)" />
<circle cx="416" cy="97" r="5" style="fill:black" />
<circle cx="89" cy="90" r="5" style="fill:rgb(127,0,0)" />
<circle cx="479" cy="18" r="5" style="fill:black" />
<circle cx="253" cy="216" r="5" style="fill:rgb(127,0,0)" />
<circle cx="504" cy="202" r="5" style="fill:black" />
<circle cx="63" cy="76" r="5" style="fill:rgb(127,0,0)" />
<circle cx="392" cy="104" r="5" style="fill:black" />
<circle cx="32" cy="67" r="5" style="fill:rgb(127,0,0)" />
<circle cx="293" cy="31" r="5" style="fill:black" />
<circle cx="66" cy="172" r="5" style="fill:rgb(127,0,0)" />
<circle cx="256" cy="6" r="5" style="fill:black" />
<circle cx="17" cy="168" r="5" style="fill:rgb(127,0,0)" />
<circle cx="466" cy="83" r="5" style="fill:black" />
<circle cx="47" cy="16" r="5" style="fill:rgb(127,0,0)" />
<circle cx="436" cy="134" r="5" style="fill:black" />
<circle cx="49" cy="135" r="5" style="fill:rgb(127,0,0)" />
<circle cx="277" cy="208" r="5" style="fill:black" />
<circle cx="73" cy="204" r="5" style="fill:rgb(127,0,0)" />
<circle cx="437" cy="86" r="5" style="fill:black" />
<circle cx="220" cy="164" r="5" style="fill:rgb(127,0,0)" />
<circle cx="273" cy="43" r="5" style="fill:black" />
<circle cx="121" cy="205" r="5" style="fill:rgb(127,0,0)" />
<circle cx="414" cy="24" r="5" style="fill:black" />
<circle cx="226" cy="191" r="5" style="fill:rgb(127,0,0)" />
<circle cx="508" cy="8" r="5" style="fill:black" />
<circle cx="58" cy="58" r="5" style="fill:rgb(127,0,0)" />
<circle cx="292" cy="24" r="5" style="fill:black" />
<circle cx="38" cy="35" r="5" style="fill:rgb(127,0,0)" />
<circle cx="454" cy="47" r="5" style="fill:black" />
<circle cx="116" cy="18" r="5" style="fill:rgb(127,0,0)" />
<circle cx="285" cy="156" r="5" style="fill:black" />
<circle cx="54" cy="229" r="5" style="fill:rgb(127,0,0)" />
<circle cx="484" cy="88" r="5" style="fill:black" />
<circle cx="88" cy="77" r="5" style="fill:rgb(127,0,0)" />
<circle cx="468" cy="185" r="5" style="fill:black" />
<circle cx="175" cy="249" r="5" style="fill:rgb(127,0,0)" />
<circle cx="478" cy="98" r="5" style="fill:black" />
<circle cx="114" cy="180" r="5" style="fill:rgb(127,0,0)" />
<circle cx="463" cy="217" r="5" style="fill:black" />
<circle cx="181" cy="239" r="5" style="fill:rgb(127,0,0)" />
<circle cx="439" cy="32" r="5" style="fill:black" />
<circle cx="66" cy="87" r="5" style="fill:rgb(127,0,0)" />
<circle cx="376" cy="210" r="5" style="fill:black" />
<circle cx="211" cy="11" r="5" style="fill:rgb(127,0,0)" />
<circle cx="302" cy="59" r="5" style="fill:black" />
<circle cx="23" cy="36" r="5" style="fill:rgb(127,0,0)" />
<circle cx="507" cy="36" r="5" style="fill:black" />
<circle cx="62" cy="188" r="5" style="fill:rgb(127,0,0)" />
<circle cx="504" cy="252" r="5" style="fill:black" />
<circle cx="203" cy="253" r="5" style="fill:rgb(127,0,0)" />
<circle cx="404" cy="25" r="5" style="fill:black" />
<circle cx="250" cy="136" r="5" style="fill:rgb(127,0,0)" />
<circle cx="265" cy="176" r="5" style="fill:black" />
<circle cx="29" cy="198" r="5" style="fill:rgb(127,0,0)" />
<circle cx="468" cy="201" r="5" style="fill:black" />
<circle cx="234" cy="96" r="5" style="fill:rgb(127,0,0)" />
<circle cx="457" cy="141" r="5" style="fill:black" />
<circle cx="119" cy="73" r="5" style="fill:rgb(127,0,0)" />
<circle cx="437" cy="253" r="5" style="fill:black" />
<circle cx="8" cy="191" r="5" style="fill:rgb(127,0,0)" />
<circle cx="323" cy="43" r="5" style="fill:black" />
<circle cx="169" cy="7" r="5" style="fill:rgb(127,0,0)" />
<circle cx="288" cy="188" r="5" style="fill:black" />
<circle cx="252" cy="117" r="5" style="fill:rgb(127,0,0)" />
<circle cx="320" cy="68" r="5" style="fill:black" />
<circle cx="238" cy="101" r="5" style="fill:rgb(127,0,0)" />
<circle cx="445" cy="89" r="5" style="fill:black" />
<circle cx="15" cy="5" r="5" style="fill:rgb(127,0,0)" />
<circle cx="459" cy="232" r="5" style="fill:black" />
<circle cx="209" cy="85" r="5" style="fill:rgb(127,0,0)" />
<circle cx="347" cy="242" r="5" style="fill:black" />
<circle cx="146" cy="161" r="5" style="fill:rgb(127,0,0)" />
<circle cx="429" cy="155" r="5" style="fill:black" />
<circle cx="16" cy="225" r="5" style="fill:rgb(127,0,0)" />
<circle cx="417" cy="115" r="5" style="fill:black" />
<circle cx="131" cy="157" r="5" style="fill:rgb(127,0,0)" />
<circle cx="417" cy="134" r="5" style="fill:black" />
<circle cx="7" cy="250" r="5" style="fill:rgb(127,0,0)" />
<circle cx="312" cy="161" r="5" style="fill:black" />
<circle cx="85" cy="64" r="5" style="fill:rgb(127,0,0)" />
<circle cx="397" cy="1" r="5" style="fill:black" />
<circle cx="65" cy="133" r="5" style="fill:rgb(127,0,0)" />
<circle cx="413" cy="18" r="5" style="fill:black" />
<circle cx="99" cy="214" r="5" style="fill:rgb(127,0,0)" />
<circle cx="363" cy="159" r="5" style="fill:black" />
<circle cx="199" cy="128" r="5" style="fill:rgb(127,0,0)" />
<circle cx="312" cy="216" r="5" style="fill:black" />
<circle cx="244" cy="170" r="5" style="fill:rgb(127,0,0)" />
<circle cx="309" cy="35" r="5" style="fill:black" />
<circle cx="193" cy="149" r="5" style="fill:rgb(127,0,0)" />
<circle cx="261" cy="29" r="5" style="fill:black" />
<circle cx="191" cy="50" r="5" style="fill:rgb(127,0,0)" />
<circle cx="431" cy="173" r="5" style="fill:black" />
<circle cx="199" cy="72" r="5" style="fill:rgb(127,0,0)" />
<circle cx="366" cy="252" r="5" style="fill:black" />
<circle cx="142" cy="158" r="5" style="fill:rgb(127,0,0)" />
<circle cx="406" cy="202" r="5" style="fill:black" />
<circle cx="150" cy="197" r="5" style="fill:rgb(127,0,0)" />
<circle cx="347" cy="227" r="5" style="fill:black" />
<circle cx="35" cy="177" r="5" style="fill:rgb(127,0,0)" />
<circle cx="493" cy="10" r="5" style="fill:black" />
<circle cx="250" cy="249" r="5" style="fill:rgb(127,0,0)" />
<circle cx="263" cy="38" r="5" style="fill:black" />
<circle cx="140" cy="29" r="5" style="fill:rgb(127,0,0)" />
<circle cx="492" cy="66" r="5" style="fill:black" />
<circle cx="208" cy="151" r="5" style="fill:rgb(127,0,0)" />
<circle cx="293" cy="186" r="5" style="fill:black" />
<circle cx="162" cy="210" r="5" style="fill:rgb(127,0,0)" />
<circle cx="376" cy="37" r="5" style="fill:black" />
<circle cx="61" cy="224" r="5" style="fill:rgb(127,0,0)" />
<circle cx="482" cy="129" r="5" style="fill:black" />
<circle cx="49" cy="127" r="5" style="fill:rgb(127,0,0)" />
<circle cx="313" cy="47" r="5" style="fill:black" />
<circle cx="182" cy="66" r="5" style="fill:rgb(127,0,0)" />
<circle cx="371" cy="160" r="5" style="fill:black" />
<circle cx="154" cy="200" r="5" style="fill:rgb(127,0,0)" />
<circle cx="364" cy="20" r="5" style="fill:black" />
<circle cx="107" cy="246" r="5" style="fill:rgb(127,0,0)" />
<circle cx="423" cy="42" r="5" style="fill:black" />
<circle cx="50" cy="2" r="5" style="fill:rgb(127,0,0)" />
<circle cx="274" cy="101" r="5" style="fill:black" />
<circle cx="17" cy="44" r="5" style="fill:rgb(127,0,0)" />
<circle cx="414" cy="41" r="5" style="fill:black" />
<circle cx="236" cy="8" r="5" style="fill:rgb(127,0,0)" />
<circle cx="293" cy="154" r="5" style="fill:black" />
<circle cx="160" cy="210" r="5" style="fill:rgb(127,0,0)" />
<circle cx="494" cy="220" r="5" style="fill:black" />
<circle cx="118" cy="71" r="5" style="fill:rgb(127,0,0)" />
<circle cx="487" cy="197" r="5" style="fill:black" />
<circle cx="11" cy="228" r="5" style="fill:rgb(127,0,0)" />
<circle cx="359" cy="250" r="5" style="fill:black" />
<circle cx="154" cy="236" r="5" style="fill:rgb(127,0,0)" />
<circle cx="305" cy="184" r="5" style="fill:black" />
<circle cx="59" cy="97" r="5" style="fill:rgb(127,0,0)" />
<circle cx="319" cy="198" r="5" style="fill:black" />
<circle cx="57" cy="55" r="5" style="fill:rgb(127,0,0)" />
<circle cx="318" cy="164" r="5" style="fill:black" />
<circle cx="220" cy="77" r="5" style="fill:rgb(127,0,0)" />
<circle cx="448" cy="91" r="5" style="fill:black" />
<circle cx="131" cy="86" r="5" style="fill:rgb(127,0,0)" />
<circle cx="503" cy="235" r="5" style="fill:black" />
<circle cx="148" cy="90" r="5" style="fill:rgb(127,0,0)" />
<circle cx="429" cy="130" r="5" style="fill:black" />
<circle cx="59" cy="216" r="5" style="fill:rgb(127,0,0)" />
<circle cx="312" cy="200" r="5" style="fill:black" />
<circle cx="146" cy="119" r="5" style="fill:rgb(127,0,0)" />
<circle cx="363" cy="231" r="5" style="fill:black" />
<circle cx="187" cy="43" r="5" style="fill:rgb(127,0,0)" />
<circle cx="322" cy="26" r="5" style="fill:black" />
<circle cx="240" cy="62" r="5" style="fill:rgb(127,0,0)" />
<circle cx="487" cy="158" r="5" style="fill:black" />
<circle cx="134" cy="125" r="5" style="fill:rgb(127,0,0)" />
<circle cx="350" cy="247" r="5" style="fill:black" />
<circle cx="190" cy="208" r="5" style="fill:rgb(127,0,0)" />
<circle cx="446" cy="172" r="5" style="fill:black" />
<circle cx="160" cy="234" r="5" style="fill:rgb(127,0,0)" />
<circle cx="339" cy="163" r="5" style="fill:black" />
<circle cx="199" cy="36" r="5" style="fill:rgb(127,0,0)" />
<circle cx="317" cy="135" r="5" style="fill:black" />
<circle cx="67" cy="173" r="5" style="fill:rgb(127,0,0)" />
<circle cx="273" cy="163" r="5" style="fill:black" />
<circle cx="223" cy="97" r="5" style="fill:rgb(127,0,0)" />
<circle cx="275" cy="253" r="5" style="fill:black" />
<circle cx="246" cy="230" r="5" style="fill:rgb(127,0,0)" />
<circle cx="291" cy="88" r="5" style="fill:black" />
<circle cx="68" cy="166" r="5" style="fill:rgb(127,0,0)" />
<circle cx="441" cy="94" r="5" style="fill:black" />
<circle cx="82" cy="247" r="5" style="fill:rgb(127,0,0)" />
<circle cx="304" cy="199" r="5" style="fill:black" />
<circle cx="179" cy="146" r="5" style="fill:rgb(127,0,0)" />
<circle cx="403" cy="134" r="5" style="fill:black" />
<circle cx="47" cy="109" r="5" style="fill:rgb(127,0,0)" />
<circle cx="508" cy="223" r="5" style="fill:black" />
<circle cx="10" cy="100" r="5" style="fill:rgb(127,0,0)" />
<circle cx="262" cy="20" r="5" style="fill:black" />
<circle cx="73" cy="29" r="5" style="fill:rgb(127,0,0)" />
<circle cx="454" cy="126" r="5" style="fill:black" />
<circle cx="4" cy="109" r="5" style="fill:rgb(127,0,0)" />
<circle cx="376" cy="88" r="5" style="fill:black" />
<circle cx="211" cy="104" r="5" style="fill:rgb(127,0,0)" />
<circle cx="385" cy="60" r="5" style="fill:black" />
<circle cx="117" cy="160" r="5" style="fill:rgb(127,0,0)" />
<circle cx="473" cy="215" r="5" style="fill:black" />
<circle cx="84" cy="55" r="5" style="fill:rgb(127,0,0)" />
<circle cx="380" cy="211" r="5" style="fill:black" />
<circle cx="197" cy="228" r="5" style="fill:rgb(127,0,0)" />
<circle cx="353" cy="138" r="5" style="fill:black" />
<circle cx="169" cy="120" r="5" style="fill:rgb(127,0,0)" />
<circle cx="366" cy="11" r="5" style="fill:black" />
<circle cx="16" cy="197" r="5" style="fill:rgb(127,0,0)" />
<circle cx="384" cy="9" r="5" style="fill:black" />
<circle cx="240" cy="116" r="5" style="fill:rgb(127,0,0)" />
<circle cx="490" cy="157" r="5" style="fill:black" />
<circle cx="143" cy="99" r="5" style="fill:rgb(127,0,0)" />
<circle cx="282" cy="38" r="5" style="fill:black" />
<circle cx="110" cy="234" r="5" style="fill:rgb(127,0,0)" />
<circle cx="256" cy="187" r="5" style="fill:black" />
<circle cx="78" cy="38" r="5" style="fill:rgb(127,0,0)" />
<circle cx="484" cy="117" r="5" style="fill:black" />
<circle cx="246" cy="155" r="5" style="fill:rgb(127,0,0)" />
<circle cx="496" cy="118" r="5" style="fill:black" />
<circle cx="27" cy="223" r="5" style="fill:rgb(127,0,0)" />
<circle cx="363" cy="78" r="5" style="fill:black" />
<circle cx="192" cy="128" r="5" style="fill:rgb(127,0,0)" />
<circle cx="431" cy="130" r="5" style="fill:black" />
<circle cx="253" cy="20" r="5" style="fill:rgb(127,0,0)" />
<circle cx="379" cy="130" r="5" style="fill:black" />
<circle cx="108" cy="68" r="5" style="fill:rgb(127,0,0)" />
<circle cx="465" cy="84" r="5" style="fill:black" />
<circle cx="143" cy="226" r="5" style="fill:rgb(127,0,0)" />
<circle cx="483" cy="223" r="5" style="fill:black" />
<circle cx="90" cy="91" r="5" style="fill:rgb(127,0,0)" />
<circle cx="265" cy="152" r="5" style="fill:black" />
<circle cx="129" cy="132" r="5" style="fill:rgb(127,0,0)" />
<circle cx="487" cy="243" r="5" style="fill:black" />
<circle cx="223" cy="35" r="5" style="fill:rgb(127,0,0)" />
<circle cx="503" cy="184" r="5" style="fill:black" />
<circle cx="194" cy="61" r="5" style="fill:rgb(127,0,0)" />
<circle cx="432" cy="101" r="5" style="fill:black" />
<circle cx="192" cy="97" r="5" style="fill:rgb(127,0,0)" />
<circle cx="323" cy="10" r="5" style="fill:black" />
<circle cx="69" cy="8" r="5" style="fill:rgb(127,0,0)" />
<circle cx="441" cy="219" r="5" style="fill:black" />
<circle cx="67" cy="11" r="5" style="fill:rgb(127,0,0)" />
<circle cx="456" cy="74" r="5" style="fill:black" />
<circle cx="151" cy="235" r="5" style="fill:rgb(127,0,0)" />
<circle cx="357" cy="146" r="5" style="fill:black" />
<circle cx="113" cy="10" r="5" style="fill:rgb(127,0,0)" />
<circle cx="425" cy="26" r="5" style="fill:black" />
<circle cx="157" cy="249" r="5" style="fill:rgb(127,0,0)" />
<circle cx="343" cy="56" r="5" style="fill:black" />
<circle cx="112" cy="33" r="5" style="fill:rgb(127,0,0)" />
<circle cx="339" cy="151" r="5" style="fill:black" />
<circle cx="11" cy="205" r="5" style="fill:rgb(127,0,0)" />
<circle cx="441" cy="59" r="5" style="fill:black" />
<circle cx="222" cy="167" r="5" style="fill:rgb(127,0,0)" />
<circle cx="435" cy="219" r="5" style="fill:black" />
</g>
<desc>Legends</desc>
<g style="text-anchor:middle; font-size:18; font-family:Calibri">
<text x="128" y="280"  >Go rand package</text>
<text x="384" y="280" >/dev/urandom</text>
<text x="256" y="280" style="font-size:12" >n=256</text>
</g>
</svg>
