<?xml version="1.0"?>
<!-- Generated by SVGo -->
<svg width="700" height="400"
     xmlns="http://www.w3.org/2000/svg"
     xmlns:xlink="http://www.w3.org/1999/xlink">
<title>Richter</title>
<rect x="0" y="0" width="700" height="400" style="fill:white" />
<rect x="57" y="20" width="32" height="18" style="fill:rgb(250,103,50)" />
<rect x="57" y="43" width="32" height="18" style="fill:rgb(191,225,95)" />
<rect x="57" y="66" width="32" height="18" style="fill:rgb(178,164,183)" />
<rect x="57" y="89" width="32" height="18" style="fill:rgb(181,10,187)" />
<rect x="57" y="112" width="32" height="18" style="fill:rgb(152,85,238)" />
<rect x="57" y="135" width="32" height="18" style="fill:rgb(164,127,104)" />
<rect x="57" y="158" width="32" height="18" style="fill:rgb(129,22,20)" />
<rect x="57" y="181" width="32" height="18" style="fill:rgb(100,233,230)" />
<rect x="57" y="204" width="32" height="18" style="fill:rgb(152,195,155)" />
<rect x="57" y="227" width="32" height="18" style="fill:rgb(70,174,147)" />
<rect x="57" y="250" width="32" height="18" style="fill:rgb(20,45,60)" />
<rect x="57" y="273" width="32" height="18" style="fill:rgb(191,81,0)" />
<rect x="57" y="296" width="32" height="18" style="fill:rgb(56,40,137)" />
<rect x="57" y="319" width="32" height="18" style="fill:rgb(56,163,224)" />
<rect x="57" y="342" width="32" height="18" style="fill:rgb(134,200,104)" />
<rect x="57" y="365" width="32" height="18" style="fill:rgb(222,116,86)" />
<rect x="94" y="20" width="32" height="18" style="fill:rgb(30,78,186)" />
<rect x="94" y="43" width="32" height="18" style="fill:rgb(2,229,212)" />
<rect x="94" y="66" width="32" height="18" style="fill:rgb(16,64,236)" />
<rect x="94" y="89" width="32" height="18" style="fill:rgb(88,207,88)" />
<rect x="94" y="112" width="32" height="18" style="fill:rgb(2,235,197)" />
<rect x="94" y="135" width="32" height="18" style="fill:rgb(211,127,97)" />
<rect x="94" y="158" width="32" height="18" style="fill:rgb(58,135,122)" />
<rect x="94" y="181" width="32" height="18" style="fill:rgb(124,165,83)" />
<rect x="94" y="204" width="32" height="18" style="fill:rgb(217,33,49)" />
<rect x="94" y="227" width="32" height="18" style="fill:rgb(109,254,7)" />
<rect x="94" y="250" width="32" height="18" style="fill:rgb(126,197,175)" />
<rect x="94" y="273" width="32" height="18" style="fill:rgb(136,23,236)" />
<rect x="94" y="296" width="32" height="18" style="fill:rgb(82,254,243)" />
<rect x="94" y="319" width="32" height="18" style="fill:rgb(133,147,185)" />
<rect x="94" y="342" width="32" height="18" style="fill:rgb(100,26,228)" />
<rect x="94" y="365" width="32" height="18" style="fill:rgb(240,116,238)" />
<rect x="131" y="20" width="32" height="18" style="fill:rgb(226,196,62)" />
<rect x="131" y="43" width="32" height="18" style="fill:rgb(182,216,98)" />
<rect x="131" y="66" width="32" height="18" style="fill:rgb(4,250,15)" />
<rect x="131" y="89" width="32" height="18" style="fill:rgb(172,94,209)" />
<rect x="131" y="112" width="32" height="18" style="fill:rgb(201,103,188)" />
<rect x="131" y="135" width="32" height="18" style="fill:rgb(116,192,83)" />
<rect x="131" y="158" width="32" height="18" style="fill:rgb(102,234,18)" />
<rect x="131" y="181" width="32" height="18" style="fill:rgb(192,133,7)" />
<rect x="131" y="204" width="32" height="18" style="fill:rgb(77,158,15)" />
<rect x="131" y="227" width="32" height="18" style="fill:rgb(128,32,213)" />
<rect x="131" y="250" width="32" height="18" style="fill:rgb(221,26,22)" />
<rect x="131" y="273" width="32" height="18" style="fill:rgb(155,175,71)" />
<rect x="131" y="296" width="32" height="18" style="fill:rgb(119,227,89)" />
<rect x="131" y="319" width="32" height="18" style="fill:rgb(208,232,236)" />
<rect x="131" y="342" width="32" height="18" style="fill:rgb(177,95,227)" />
<rect x="131" y="365" width="32" height="18" style="fill:rgb(35,136,127)" />
<rect x="168" y="20" width="32" height="18" style="fill:rgb(94,155,119)" />
<rect x="168" y="43" width="32" height="18" style="fill:rgb(137,105,86)" />
<rect x="168" y="66" width="32" height="18" style="fill:rgb(134,23,155)" />
<rect x="168" y="89" width="32" height="18" style="fill:rgb(176,179,184)" />
<rect x="168" y="112" width="32" height="18" style="fill:rgb(27,69,0)" />
<rect x="168" y="135" width="32" height="18" style="fill:rgb(185,65,249)" />
<rect x="168" y="158" width="32" height="18" style="fill:rgb(167,216,44)" />
<rect x="168" y="181" width="32" height="18" style="fill:rgb(70,46,9)" />
<rect x="168" y="204" width="32" height="18" style="fill:rgb(245,83,179)" />
<rect x="168" y="227" width="32" height="18" style="fill:rgb(12,176,155)" />
<rect x="168" y="250" width="32" height="18" style="fill:rgb(16,52,242)" />
<rect x="168" y="273" width="32" height="18" style="fill:rgb(228,141,15)" />
<rect x="168" y="296" width="32" height="18" style="fill:rgb(209,30,124)" />
<rect x="168" y="319" width="32" height="18" style="fill:rgb(131,143,179)" />
<rect x="168" y="342" width="32" height="18" style="fill:rgb(40,80,148)" />
<rect x="168" y="365" width="32" height="18" style="fill:rgb(52,210,199)" />
<rect x="205" y="20" width="32" height="18" style="fill:rgb(200,34,64)" />
<rect x="205" y="43" width="32" height="18" style="fill:rgb(231,91,119)" />
<rect x="205" y="66" width="32" height="18" style="fill:rgb(192,211,246)" />
<rect x="205" y="89" width="32" height="18" style="fill:rgb(131,4,152)" />
<rect x="205" y="112" width="32" height="18" style="fill:rgb(181,164,62)" />
<rect x="205" y="135" width="32" height="18" style="fill:rgb(133,188,123)" />
<rect x="205" y="158" width="32" height="18" style="fill:rgb(147,133,37)" />
<rect x="205" y="181" width="32" height="18" style="fill:rgb(119,50,39)" />
<rect x="205" y="204" width="32" height="18" style="fill:rgb(67,9,166)" />
<rect x="205" y="227" width="32" height="18" style="fill:rgb(129,82,42)" />
<rect x="205" y="250" width="32" height="18" style="fill:rgb(196,82,238)" />
<rect x="205" y="273" width="32" height="18" style="fill:rgb(210,253,228)" />
<rect x="205" y="296" width="32" height="18" style="fill:rgb(222,54,205)" />
<rect x="205" y="319" width="32" height="18" style="fill:rgb(27,142,216)" />
<rect x="205" y="342" width="32" height="18" style="fill:rgb(69,37,130)" />
<rect x="205" y="365" width="32" height="18" style="fill:rgb(136,114,206)" />
<rect x="242" y="20" width="32" height="18" style="fill:rgb(44,227,4)" />
<rect x="242" y="43" width="32" height="18" style="fill:rgb(244,200,13)" />
<rect x="242" y="66" width="32" height="18" style="fill:rgb(117,205,75)" />
<rect x="242" y="89" width="32" height="18" style="fill:rgb(161,232,78)" />
<rect x="242" y="112" width="32" height="18" style="fill:rgb(228,17,175)" />
<rect x="242" y="135" width="32" height="18" style="fill:rgb(68,150,5)" />
<rect x="242" y="158" width="32" height="18" style="fill:rgb(211,158,201)" />
<rect x="242" y="181" width="32" height="18" style="fill:rgb(170,174,127)" />
<rect x="242" y="204" width="32" height="18" style="fill:rgb(129,157,60)" />
<rect x="242" y="227" width="32" height="18" style="fill:rgb(205,19,62)" />
<rect x="242" y="250" width="32" height="18" style="fill:rgb(131,148,45)" />
<rect x="242" y="273" width="32" height="18" style="fill:rgb(142,108,31)" />
<rect x="242" y="296" width="32" height="18" style="fill:rgb(60,13,58)" />
<rect x="242" y="319" width="32" height="18" style="fill:rgb(144,86,23)" />
<rect x="242" y="342" width="32" height="18" style="fill:rgb(95,245,167)" />
<rect x="242" y="365" width="32" height="18" style="fill:rgb(74,37,190)" />
<rect x="279" y="20" width="32" height="18" style="fill:rgb(112,84,44)" />
<rect x="279" y="43" width="32" height="18" style="fill:rgb(85,190,12)" />
<rect x="279" y="66" width="32" height="18" style="fill:rgb(206,80,69)" />
<rect x="279" y="89" width="32" height="18" style="fill:rgb(252,160,108)" />
<rect x="279" y="112" width="32" height="18" style="fill:rgb(28,119,165)" />
<rect x="279" y="135" width="32" height="18" style="fill:rgb(182,250,173)" />
<rect x="279" y="158" width="32" height="18" style="fill:rgb(20,229,240)" />
<rect x="279" y="181" width="32" height="18" style="fill:rgb(199,23,50)" />
<rect x="279" y="204" width="32" height="18" style="fill:rgb(51,138,200)" />
<rect x="279" y="227" width="32" height="18" style="fill:rgb(168,41,93)" />
<rect x="279" y="250" width="32" height="18" style="fill:rgb(142,42,52)" />
<rect x="279" y="273" width="32" height="18" style="fill:rgb(33,11,203)" />
<rect x="279" y="296" width="32" height="18" style="fill:rgb(220,94,135)" />
<rect x="279" y="319" width="32" height="18" style="fill:rgb(46,20,82)" />
<rect x="279" y="342" width="32" height="18" style="fill:rgb(11,59,138)" />
<rect x="279" y="365" width="32" height="18" style="fill:rgb(120,11,178)" />
<rect x="316" y="20" width="32" height="18" style="fill:rgb(151,182,172)" />
<rect x="316" y="43" width="32" height="18" style="fill:rgb(115,248,19)" />
<rect x="316" y="66" width="32" height="18" style="fill:rgb(190,39,80)" />
<rect x="316" y="89" width="32" height="18" style="fill:rgb(169,109,118)" />
<rect x="316" y="112" width="32" height="18" style="fill:rgb(135,121,211)" />
<rect x="316" y="135" width="32" height="18" style="fill:rgb(73,215,132)" />
<rect x="316" y="158" width="32" height="18" style="fill:rgb(59,222,234)" />
<rect x="316" y="181" width="32" height="18" style="fill:rgb(163,55,20)" />
<rect x="316" y="204" width="32" height="18" style="fill:rgb(12,236,195)" />
<rect x="316" y="227" width="32" height="18" style="fill:rgb(85,163,45)" />
<rect x="316" y="250" width="32" height="18" style="fill:rgb(153,67,81)" />
<rect x="316" y="273" width="32" height="18" style="fill:rgb(14,98,105)" />
<rect x="316" y="296" width="32" height="18" style="fill:rgb(159,134,148)" />
<rect x="316" y="319" width="32" height="18" style="fill:rgb(59,194,92)" />
<rect x="316" y="342" width="32" height="18" style="fill:rgb(66,14,135)" />
<rect x="316" y="365" width="32" height="18" style="fill:rgb(243,150,174)" />
<rect x="353" y="20" width="32" height="18" style="fill:rgb(128,187,77)" />
<rect x="353" y="43" width="32" height="18" style="fill:rgb(246,63,243)" />
<rect x="353" y="66" width="32" height="18" style="fill:rgb(159,96,128)" />
<rect x="353" y="89" width="32" height="18" style="fill:rgb(153,141,190)" />
<rect x="353" y="112" width="32" height="18" style="fill:rgb(53,133,184)" />
<rect x="353" y="135" width="32" height="18" style="fill:rgb(240,83,220)" />
<rect x="353" y="158" width="32" height="18" style="fill:rgb(206,63,64)" />
<rect x="353" y="181" width="32" height="18" style="fill:rgb(90,136,8)" />
<rect x="353" y="204" width="32" height="18" style="fill:rgb(224,8,235)" />
<rect x="353" y="227" width="32" height="18" style="fill:rgb(164,53,190)" />
<rect x="353" y="250" width="32" height="18" style="fill:rgb(130,130,86)" />
<rect x="353" y="273" width="32" height="18" style="fill:rgb(232,237,241)" />
<rect x="353" y="296" width="32" height="18" style="fill:rgb(92,246,149)" />
<rect x="353" y="319" width="32" height="18" style="fill:rgb(69,245,248)" />
<rect x="353" y="342" width="32" height="18" style="fill:rgb(87,236,100)" />
<rect x="353" y="365" width="32" height="18" style="fill:rgb(163,183,245)" />
<rect x="390" y="20" width="32" height="18" style="fill:rgb(232,131,119)" />
<rect x="390" y="43" width="32" height="18" style="fill:rgb(202,6,207)" />
<rect x="390" y="66" width="32" height="18" style="fill:rgb(232,166,0)" />
<rect x="390" y="89" width="32" height="18" style="fill:rgb(14,112,2)" />
<rect x="390" y="112" width="32" height="18" style="fill:rgb(74,178,80)" />
<rect x="390" y="135" width="32" height="18" style="fill:rgb(12,178,223)" />
<rect x="390" y="158" width="32" height="18" style="fill:rgb(50,198,68)" />
<rect x="390" y="181" width="32" height="18" style="fill:rgb(132,137,123)" />
<rect x="390" y="204" width="32" height="18" style="fill:rgb(103,123,250)" />
<rect x="390" y="227" width="32" height="18" style="fill:rgb(186,223,174)" />
<rect x="390" y="250" width="32" height="18" style="fill:rgb(136,142,198)" />
<rect x="390" y="273" width="32" height="18" style="fill:rgb(215,117,116)" />
<rect x="390" y="296" width="32" height="18" style="fill:rgb(84,57,222)" />
<rect x="390" y="319" width="32" height="18" style="fill:rgb(118,107,248)" />
<rect x="390" y="342" width="32" height="18" style="fill:rgb(152,115,153)" />
<rect x="390" y="365" width="32" height="18" style="fill:rgb(64,222,213)" />
<rect x="427" y="20" width="32" height="18" style="fill:rgb(6,230,212)" />
<rect x="427" y="43" width="32" height="18" style="fill:rgb(116,173,77)" />
<rect x="427" y="66" width="32" height="18" style="fill:rgb(104,30,114)" />
<rect x="427" y="89" width="32" height="18" style="fill:rgb(192,170,201)" />
<rect x="427" y="112" width="32" height="18" style="fill:rgb(104,192,73)" />
<rect x="427" y="135" width="32" height="18" style="fill:rgb(88,39,224)" />
<rect x="427" y="158" width="32" height="18" style="fill:rgb(1,108,5)" />
<rect x="427" y="181" width="32" height="18" style="fill:rgb(89,248,114)" />
<rect x="427" y="204" width="32" height="18" style="fill:rgb(241,10,189)" />
<rect x="427" y="227" width="32" height="18" style="fill:rgb(136,154,191)" />
<rect x="427" y="250" width="32" height="18" style="fill:rgb(118,166,217)" />
<rect x="427" y="273" width="32" height="18" style="fill:rgb(224,115,31)" />
<rect x="427" y="296" width="32" height="18" style="fill:rgb(195,178,242)" />
<rect x="427" y="319" width="32" height="18" style="fill:rgb(125,118,234)" />
<rect x="427" y="342" width="32" height="18" style="fill:rgb(239,128,46)" />
<rect x="427" y="365" width="32" height="18" style="fill:rgb(183,17,112)" />
<rect x="464" y="20" width="32" height="18" style="fill:rgb(145,100,43)" />
<rect x="464" y="43" width="32" height="18" style="fill:rgb(53,55,181)" />
<rect x="464" y="66" width="32" height="18" style="fill:rgb(185,87,206)" />
<rect x="464" y="89" width="32" height="18" style="fill:rgb(25,23,27)" />
<rect x="464" y="112" width="32" height="18" style="fill:rgb(32,180,47)" />
<rect x="464" y="135" width="32" height="18" style="fill:rgb(107,118,246)" />
<rect x="464" y="158" width="32" height="18" style="fill:rgb(2,57,71)" />
<rect x="464" y="181" width="32" height="18" style="fill:rgb(86,12,209)" />
<rect x="464" y="204" width="32" height="18" style="fill:rgb(134,2,198)" />
<rect x="464" y="227" width="32" height="18" style="fill:rgb(153,211,133)" />
<rect x="464" y="250" width="32" height="18" style="fill:rgb(118,146,203)" />
<rect x="464" y="273" width="32" height="18" style="fill:rgb(102,96,0)" />
<rect x="464" y="296" width="32" height="18" style="fill:rgb(205,142,26)" />
<rect x="464" y="319" width="32" height="18" style="fill:rgb(188,213,131)" />
<rect x="464" y="342" width="32" height="18" style="fill:rgb(173,125,38)" />
<rect x="464" y="365" width="32" height="18" style="fill:rgb(220,98,224)" />
<rect x="501" y="20" width="32" height="18" style="fill:rgb(109,36,110)" />
<rect x="501" y="43" width="32" height="18" style="fill:rgb(211,88,9)" />
<rect x="501" y="66" width="32" height="18" style="fill:rgb(112,246,131)" />
<rect x="501" y="89" width="32" height="18" style="fill:rgb(112,29,152)" />
<rect x="501" y="112" width="32" height="18" style="fill:rgb(0,244,1)" />
<rect x="501" y="135" width="32" height="18" style="fill:rgb(232,228,36)" />
<rect x="501" y="158" width="32" height="18" style="fill:rgb(103,10,129)" />
<rect x="501" y="181" width="32" height="18" style="fill:rgb(226,103,131)" />
<rect x="501" y="204" width="32" height="18" style="fill:rgb(199,60,196)" />
<rect x="501" y="227" width="32" height="18" style="fill:rgb(65,68,106)" />
<rect x="501" y="250" width="32" height="18" style="fill:rgb(197,6,27)" />
<rect x="501" y="273" width="32" height="18" style="fill:rgb(74,118,14)" />
<rect x="501" y="296" width="32" height="18" style="fill:rgb(83,44,55)" />
<rect x="501" y="319" width="32" height="18" style="fill:rgb(118,93,90)" />
<rect x="501" y="342" width="32" height="18" style="fill:rgb(102,133,203)" />
<rect x="501" y="365" width="32" height="18" style="fill:rgb(245,30,83)" />
<rect x="538" y="20" width="32" height="18" style="fill:rgb(177,89,27)" />
<rect x="538" y="43" width="32" height="18" style="fill:rgb(207,195,84)" />
<rect x="538" y="66" width="32" height="18" style="fill:rgb(139,79,215)" />
<rect x="538" y="89" width="32" height="18" style="fill:rgb(167,51,115)" />
<rect x="538" y="112" width="32" height="18" style="fill:rgb(104,183,90)" />
<rect x="538" y="135" width="32" height="18" style="fill:rgb(213,130,35)" />
<rect x="538" y="158" width="32" height="18" style="fill:rgb(14,155,17)" />
<rect x="538" y="181" width="32" height="18" style="fill:rgb(168,62,57)" />
<rect x="538" y="204" width="32" height="18" style="fill:rgb(155,74,37)" />
<rect x="538" y="227" width="32" height="18" style="fill:rgb(171,109,251)" />
<rect x="538" y="250" width="32" height="18" style="fill:rgb(201,181,125)" />
<rect x="538" y="273" width="32" height="18" style="fill:rgb(186,62,51)" />
<rect x="538" y="296" width="32" height="18" style="fill:rgb(204,79,53)" />
<rect x="538" y="319" width="32" height="18" style="fill:rgb(12,185,208)" />
<rect x="538" y="342" width="32" height="18" style="fill:rgb(113,16,43)" />
<rect x="538" y="365" width="32" height="18" style="fill:rgb(250,89,56)" />
<rect x="575" y="20" width="32" height="18" style="fill:rgb(83,142,100)" />
<rect x="575" y="43" width="32" height="18" style="fill:rgb(73,188,229)" />
<rect x="575" y="66" width="32" height="18" style="fill:rgb(173,226,169)" />
<rect x="575" y="89" width="32" height="18" style="fill:rgb(145,244,107)" />
<rect x="575" y="112" width="32" height="18" style="fill:rgb(44,180,133)" />
<rect x="575" y="135" width="32" height="18" style="fill:rgb(177,139,237)" />
<rect x="575" y="158" width="32" height="18" style="fill:rgb(214,192,240)" />
<rect x="575" y="181" width="32" height="18" style="fill:rgb(81,252,42)" />
<rect x="575" y="204" width="32" height="18" style="fill:rgb(127,90,20)" />
<rect x="575" y="227" width="32" height="18" style="fill:rgb(60,93,217)" />
<rect x="575" y="250" width="32" height="18" style="fill:rgb(18,154,59)" />
<rect x="575" y="273" width="32" height="18" style="fill:rgb(39,59,81)" />
<rect x="575" y="296" width="32" height="18" style="fill:rgb(173,138,75)" />
<rect x="575" y="319" width="32" height="18" style="fill:rgb(248,210,94)" />
<rect x="575" y="342" width="32" height="18" style="fill:rgb(224,186,106)" />
<rect x="575" y="365" width="32" height="18" style="fill:rgb(8,40,17)" />
<rect x="612" y="20" width="32" height="18" style="fill:rgb(96,25,202)" />
<rect x="612" y="43" width="32" height="18" style="fill:rgb(68,8,74)" />
<rect x="612" y="66" width="32" height="18" style="fill:rgb(139,214,27)" />
<rect x="612" y="89" width="32" height="18" style="fill:rgb(119,123,154)" />
<rect x="612" y="112" width="32" height="18" style="fill:rgb(17,62,72)" />
<rect x="612" y="135" width="32" height="18" style="fill:rgb(30,43,246)" />
<rect x="612" y="158" width="32" height="18" style="fill:rgb(32,236,88)" />
<rect x="612" y="181" width="32" height="18" style="fill:rgb(46,10,200)" />
<rect x="612" y="204" width="32" height="18" style="fill:rgb(99,30,89)" />
<rect x="612" y="227" width="32" height="18" style="fill:rgb(252,150,161)" />
<rect x="612" y="250" width="32" height="18" style="fill:rgb(191,62,113)" />
<rect x="612" y="273" width="32" height="18" style="fill:rgb(126,239,62)" />
<rect x="612" y="296" width="32" height="18" style="fill:rgb(202,52,228)" />
<rect x="612" y="319" width="32" height="18" style="fill:rgb(131,78,38)" />
<rect x="612" y="342" width="32" height="18" style="fill:rgb(249,197,143)" />
<rect x="612" y="365" width="32" height="18" style="fill:rgb(231,123,139)" />
</svg>
