<?xml version="1.0"?>
<!-- Generated by SVGo -->
<svg width="500" height="300"
     xmlns="http://www.w3.org/2000/svg"
     xmlns:xlink="http://www.w3.org/1999/xlink">
<title>SVG Gopher</title>
<rect x="0" y="0" width="500" height="300" style="fill:rgb(255,255,255)" />
<g transform="translate(100, 100)">
<g transform="rotate(-30)">
<g style="fill:none; stroke:none">
<path d="M48,120 C48,120 168,-24 288,120" style="fill:rgb(210,161,161)" />
<rect x="48" y="119" width="240" height="72" rx="10" ry="10" style="fill:rgb(210,161,161)" />
<circle cx="48" cy="120" r="20" style="fill:brown; fill-opacity:0.2" />
<circle cx="48" cy="120" r="10" style="fill:brown" />
<circle cx="288" cy="120" r="20" style="fill:brown; fill-opacity:0.2" />
<circle cx="288" cy="120" r="10" style="fill:brown" />
<circle cx="128" cy="96" r="26" style="fill:white" />
<circle cx="138" cy="96" r="14" style="fill:black" />
<circle cx="143" cy="96" r="5" style="fill:white" />
<circle cx="208" cy="96" r="26" style="fill:white" />
<circle cx="218" cy="96" r="14" style="fill:black" />
<circle cx="223" cy="96" r="5" style="fill:white" />
<rect x="138" y="150" width="30" height="40" rx="5" ry="5" style="fill:white" />
<rect x="168" y="150" width="30" height="40" rx="5" ry="5" style="fill:white" />
<ellipse cx="168" cy="150" rx="40" ry="20" style="fill:brown" />
<ellipse cx="168" cy="130" rx="24" ry="20" style="fill:black" />
</g>
</g>
</g>
<a xlink:href="svgdef.svg" xlink:title="SVG Spec &amp; Usage">
<text x="90" y="145" style="font-family:Calibri,sans-serif;font-size:80;fill:brown" >SVG</text>
</a>
</svg>
